# xmcd CD database file
#
# Track frame offsets:
#	150
#	13021
#	26292
#	41131
#	52504
#	67726
#	81283
#	93442
#	106374
#	119545
#	158487
#	174008
#	190083
#	204537
#	218700
#	231583
#	244737
#	261048
#	276975
#	288343
#
# Disc length: 4046 seconds
#
# Revision: 0
# Processed by: cddbd v1.5.2PL0 Copyright (c) Steve Scherf et al.
# Submitted via: CDex 1.51
#
DISCID=090fcc14
DTITLE=Various Artist - Woody Allen and La Musique - De Manhattan à Magic In The Moonlight - CD2
DYEAR=2016
DGENRE=Jazz
TTITLE0=Billie Holiday - Did I Remember ?
TTITLE1=Carmen Cavallaro - Cocktail For Two
TTITLE2=Coleman Hawkins and His All Stars - Out Of Nowhere
TTITLE3=Erroll Garner - She's Funny That Way
TTITLE4=Benny Goodman Quartet - Whispering
TTITLE5=Erroll Garner - Penthouse Serenade
TTITLE6=Duke Ellington and His Orchestra - That Jungle Jambore
TTITLE7=Bix Beiderbecke and His Gang - All The Jazz Band Ball
TTITLE8=Erroll Garner - I'm In The Mood For Love
TTITLE9=Benny Goodman and His Orchestra - Sing Sing Sing
TTITLE10=Artie Shaw and His Orchestra - Moonglow
TTITLE11=Glenn Miller and His 0rchestra - In The Mood
TTITLE12=Artie Shaw and His Orchestra - Begin the Biguine
TTITLE13=Frank Sinatra - If You Are But A Dream
TTITLE14=Carmen Miranda - South American Way
TTITLE15=Harry James and His Orchestra - I've Heard That Song Before
TTITLE16=Fred Astaire - Cheek To Cheek
TTITLE17=Louis Armstrong and His 0rchestra - Stardust
TTITLE18=Django Reinhardt Trio - I'll See You In My Dreams
TTITLE19=Arturo Toscanini and NBC Symphony Orchetra - Rhapsody In Blue 
EXTD=YEAR: 2016
EXTT0=
EXTT1=
EXTT2=
EXTT3=
EXTT4=
EXTT5=
EXTT6=
EXTT7=
EXTT8=
EXTT9=
EXTT10=
EXTT11=
EXTT12=
EXTT13=
EXTT14=
EXTT15=
EXTT16=
EXTT17=
EXTT18=
EXTT19=
PLAYORDER=
